# xmcd
#
# Track frame offsets: 
#        150
#        19676
#        25814
#        45340
#        64866
#        84392
#
# Disc length: 1379 seconds
#
# Revision: 0
# Processed by: cddbd v1.5.2PL0 Copyright (c) Steve Scherf et al.
# Submitted via: ExactAudioCopy v1.0b6
#
DISCID=3c056106
DTITLE=Fred Hammond - I Feel Good (Christian World Soundtraks) (2012)
DYEAR=2012
DGENRE=Performance Trax
TTITLE0=I Feel Good - Demonstration
TTITLE1=Promo Demo
TTITLE2=I Feel Good - Original Key With BGV's [Db]
TTITLE3=I Feel Good - High Key With BGV's [E]
TTITLE4=I Feel Good - Lower Key With BGV's [Bb]
TTITLE5=I Feel Good - Original Key Without BGV's [Db]
EXTD=
EXTT0=
EXTT1=
EXTT2=
EXTT3=
EXTT4=
EXTT5=
PLAYORDER=
